<svg xmlns="http://www.w3.org/2000/svg" viewBox="0 0 64 64">
  <defs>
    <linearGradient id="bg" x1="0%" y1="0%" x2="100%" y2="100%">
      <stop offset="0%" stop-color="#295f96"/>
      <stop offset="55%" stop-color="#1a3f68"/>
      <stop offset="100%" stop-color="#0d2137"/>
    </linearGradient>
    <linearGradient id="wave" x1="0%" y1="0%" x2="100%" y2="0%">
      <stop offset="0%" stop-color="#9dd0ff"/>
      <stop offset="100%" stop-color="#e9f6ff"/>
    </linearGradient>
  </defs>
  <rect width="64" height="64" rx="16" fill="url(#bg)"/>
  <path d="M10 40c7-10 13-15 20-15 7 0 10 7 16 7 4 0 7-2 8-3v8c-2 2-5 4-10 4-7 0-10-7-16-7-5 0-10 3-18 14z" fill="url(#wave)" opacity=".95"/>
  <path d="M15 24c6-7 11-10 17-10 6 0 9 4 14 4 3 0 6-1 9-3v8c-3 2-6 3-10 3-6 0-9-4-14-4-5 0-9 2-16 10z" fill="#6fb2ff" opacity=".75"/>
  <path d="M24 18h5v28h-5zm11 0h5v28h-5z" fill="#f3fbff"/>
</svg>
